# xmcd
#
# Track frame offsets:
# 150
# 20729
# 38029
# 54791
# 72826
# 93044
# 110447
# 128133
# 145860
# 161050
# 177779
# 193441
# 209942
# 223935
# 244861
# 258199
# 277365
# 295674
#
# Disc length: 4208 seconds
#
#
# Revision: 2
# Processed by: cddbd v1.5.1PL0 Copyright (c) Steve Scherf et al.
# Submitted via: FreeRIP 2.941 
#
DISCID=1c106e12
DTITLE=Various Artist - The R&B Collection II Disk Two
DYEAR=2004
DGENRE=R&B
TTITLE0=The Black Eyed Peas - Where Is The Love?
TTITLE1=Alicia Keys - If I Ain't Got You
TTITLE2=Enrique feat. Kelis - Not In Love
TTITLE3=Sugababes - Too Lost In You
TTITLE4=Destiny's Child - Say My Name
TTITLE5=Eve feat. Gwen Stefani - Let Me Blow Ya Mind
TTITLE6=Adeaze - How Deep is Your Love
TTITLE7=Macy Gray - I Try
TTITLE8=Christina Aguilera - What A Girl Wants
TTITLE9=Cam'Ron, Juelz Santana, Freekey Zeekey, Toya - Hey Ma
TTITLE10=Ashanti - Foolish
TTITLE11=Ms. Dynamite - Dy-Na-Mi-Tee
TTITLE12=Lumidee - Never Leave You - Uh Ooh, Uh Oooh!
TTITLE13=LL Cool J - Ain't Nobody
TTITLE14=City High - What Would You Do?
TTITLE15=Blackstreet - No Diggity
TTITLE16=Warren G feat. Nate Dogg - Regulate
TTITLE17=D'Angelo - Brown Sugar
EXTD=
EXTT0=
EXTT1=
EXTT2=
EXTT3=
EXTT4=
EXTT5=
EXTT6=
EXTT7=
EXTT8=
EXTT9=
EXTT10=
EXTT11=
EXTT12=
EXTT13=
EXTT14=
EXTT15=
EXTT16=
EXTT17=
PLAYORDER=
